<svg width="126" height="133" viewBox="0 0 126 133" fill="none" xmlns="http://www.w3.org/2000/svg">
<path d="M31.5 91.4375H15.75V116.375H31.5V91.4375ZM70.875 58.1875H55.125V116.375H70.875V58.1875ZM110.25 16.625V116.375H94.5V16.625H110.25ZM94.5 8.3125C92.4114 8.3125 90.4084 9.18828 88.9315 10.7472C87.4547 12.3061 86.625 14.4204 86.625 16.625V116.375C86.625 118.58 87.4547 120.694 88.9315 122.253C90.4084 123.812 92.4114 124.688 94.5 124.688H110.25C112.339 124.688 114.342 123.812 115.818 122.253C117.295 120.694 118.125 118.58 118.125 116.375V16.625C118.125 14.4204 117.295 12.3061 115.818 10.7472C114.342 9.18828 112.339 8.3125 110.25 8.3125H94.5ZM47.25 58.1875C47.25 55.9829 48.0797 53.8686 49.5565 52.3097C51.0334 50.7508 53.0364 49.875 55.125 49.875H70.875C72.9636 49.875 74.9666 50.7508 76.4435 52.3097C77.9203 53.8686 78.75 55.9829 78.75 58.1875V116.375C78.75 118.58 77.9203 120.694 76.4435 122.253C74.9666 123.812 72.9636 124.688 70.875 124.688H55.125C53.0364 124.688 51.0334 123.812 49.5565 122.253C48.0797 120.694 47.25 118.58 47.25 116.375V58.1875ZM7.875 91.4375C7.875 89.2329 8.70468 87.1186 10.1815 85.5597C11.6584 84.0008 13.6614 83.125 15.75 83.125H31.5C33.5886 83.125 35.5916 84.0008 37.0685 85.5597C38.5453 87.1186 39.375 89.2329 39.375 91.4375V116.375C39.375 118.58 38.5453 120.694 37.0685 122.253C35.5916 123.812 33.5886 124.688 31.5 124.688H15.75C13.6614 124.688 11.6584 123.812 10.1815 122.253C8.70468 120.694 7.875 118.58 7.875 116.375V91.4375Z" fill="black"/>
</svg>
