<svg width="26" height="49" viewBox="0 0 26 49" fill="none" xmlns="http://www.w3.org/2000/svg">
<path d="M23.0854 13.16C23.6601 13.4501 24.1416 13.887 24.4776 14.4232C24.8136 14.9594 24.9914 15.5744 24.9914 16.2015V28.0157L7.34157 19.0943C5.42925 18.1265 3.82733 16.6707 2.70944 14.8849C1.59156 13.0991 1.00038 11.0513 1 8.96362V2L23.0854 13.16Z" fill="#F6F6F6" stroke="#F7F7F7" stroke-width="1.71325" stroke-miterlimit="10"/>
<path d="M1 47L23.094 35.84C23.6686 35.5499 24.1501 35.113 24.4862 34.5768C24.8222 34.0405 24.9999 33.4255 25 32.7985V28.0074L18.0982 24.5214L18.0401 24.4917L7.35012 29.8908C5.43389 30.8587 3.82871 32.3163 2.70911 34.105C1.58952 35.8938 0.99839 37.9453 1 40.0363V47Z" fill="#F6F6F6" stroke="#F7F7F7" stroke-width="1.71325" stroke-miterlimit="10"/>
</svg>
 